<svg width="22" height="195" xmlns="http://www.w3.org/2000/svg" xmlns:xlink="http://www.w3.org/1999/xlink" overflow="hidden"><defs><clipPath id="clip0"><rect x="84" y="116" width="22" height="195"/></clipPath></defs><g clip-path="url(#clip0)" transform="translate(-84 -116)"><path d="M1-5.72483e-07 1.0001 181.408-0.999896 181.408-1 5.72483e-07ZM5.53055 173.912 0.000104744 183.393-5.53035 173.912C-5.80863 173.435-5.64749 172.823-5.17044 172.545-4.69339 172.266-4.08107 172.428-3.80279 172.905L0.863883 180.905-0.863675 180.905 3.80299 172.905C4.08127 172.428 4.69358 172.266 5.17064 172.545 5.64769 172.823 5.80883 173.435 5.53055 173.912Z" fill="#FF4E00" transform="matrix(1 0 0 -1 95 310.389)"/></g></svg>